<mxfile host="www.draw.io" modified="2019-12-16T17:32:23.905Z" agent="Mozilla/5.0 (Windows NT 10.0; Win64; x64) AppleWebKit/537.36 (KHTML, like Gecko) Chrome/78.0.3904.108 Safari/537.36" etag="wLKP6UR0eF5F_HmQIk7m" version="12.4.2" type="github" pages="1">
  <diagram id="kYJ5HBrduz4aDRdKf72d" name="Page-1">
    <mxGraphModel dx="1589" dy="821" grid="1" gridSize="10" guides="1" tooltips="1" connect="1" arrows="1" fold="1" page="1" pageScale="1" pageWidth="850" pageHeight="1100" math="0" shadow="0">
      <root>
        <mxCell id="0"/>
        <mxCell id="1" parent="0"/>
        <mxCell id="wLOCGakWQ1x5J9LID62g-5" style="edgeStyle=orthogonalEdgeStyle;rounded=0;orthogonalLoop=1;jettySize=auto;html=1;exitX=0.5;exitY=1;exitDx=0;exitDy=0;entryX=0;entryY=0.5;entryDx=0;entryDy=0;" parent="1" source="wLOCGakWQ1x5J9LID62g-7" target="wLOCGakWQ1x5J9LID62g-3" edge="1">
          <mxGeometry relative="1" as="geometry">
            <mxPoint x="60" y="30" as="sourcePoint"/>
          </mxGeometry>
        </mxCell>
        <mxCell id="wLOCGakWQ1x5J9LID62g-20" style="edgeStyle=orthogonalEdgeStyle;rounded=0;orthogonalLoop=1;jettySize=auto;html=1;exitX=1;exitY=0.5;exitDx=0;exitDy=0;entryX=0;entryY=0.5;entryDx=0;entryDy=0;" parent="1" source="wLOCGakWQ1x5J9LID62g-3" target="wLOCGakWQ1x5J9LID62g-8" edge="1">
          <mxGeometry relative="1" as="geometry"/>
        </mxCell>
        <mxCell id="wLOCGakWQ1x5J9LID62g-24" style="edgeStyle=orthogonalEdgeStyle;rounded=0;orthogonalLoop=1;jettySize=auto;html=1;exitX=1;exitY=0.5;exitDx=0;exitDy=0;entryX=0;entryY=0.5;entryDx=0;entryDy=0;" parent="1" source="wLOCGakWQ1x5J9LID62g-3" target="wLOCGakWQ1x5J9LID62g-11" edge="1">
          <mxGeometry relative="1" as="geometry"/>
        </mxCell>
        <mxCell id="wLOCGakWQ1x5J9LID62g-25" style="edgeStyle=orthogonalEdgeStyle;rounded=0;orthogonalLoop=1;jettySize=auto;html=1;exitX=1;exitY=0.5;exitDx=0;exitDy=0;entryX=0;entryY=0.5;entryDx=0;entryDy=0;" parent="1" source="wLOCGakWQ1x5J9LID62g-3" target="wLOCGakWQ1x5J9LID62g-9" edge="1">
          <mxGeometry relative="1" as="geometry"/>
        </mxCell>
        <mxCell id="wLOCGakWQ1x5J9LID62g-26" style="edgeStyle=orthogonalEdgeStyle;rounded=0;orthogonalLoop=1;jettySize=auto;html=1;entryX=0;entryY=0.5;entryDx=0;entryDy=0;" parent="1" target="wLOCGakWQ1x5J9LID62g-12" edge="1">
          <mxGeometry relative="1" as="geometry">
            <mxPoint x="183" y="200" as="sourcePoint"/>
            <Array as="points">
              <mxPoint x="183" y="70"/>
              <mxPoint x="183" y="210"/>
            </Array>
          </mxGeometry>
        </mxCell>
        <mxCell id="wLOCGakWQ1x5J9LID62g-78" style="edgeStyle=orthogonalEdgeStyle;rounded=0;orthogonalLoop=1;jettySize=auto;html=1;exitX=1;exitY=0.5;exitDx=0;exitDy=0;entryX=0;entryY=0.5;entryDx=0;entryDy=0;" parent="1" source="wLOCGakWQ1x5J9LID62g-3" target="wLOCGakWQ1x5J9LID62g-66" edge="1">
          <mxGeometry relative="1" as="geometry"/>
        </mxCell>
        <mxCell id="wLOCGakWQ1x5J9LID62g-80" style="edgeStyle=orthogonalEdgeStyle;rounded=0;orthogonalLoop=1;jettySize=auto;html=1;exitX=1;exitY=0.5;exitDx=0;exitDy=0;entryX=0;entryY=0.5;entryDx=0;entryDy=0;" parent="1" source="wLOCGakWQ1x5J9LID62g-3" target="wLOCGakWQ1x5J9LID62g-69" edge="1">
          <mxGeometry relative="1" as="geometry"/>
        </mxCell>
        <mxCell id="wLOCGakWQ1x5J9LID62g-3" value="refs" style="rounded=0;whiteSpace=wrap;html=1;fillColor=#dae8fc;strokeColor=#6c8ebf;" parent="1" vertex="1">
          <mxGeometry x="80" y="60" width="80" height="20" as="geometry"/>
        </mxCell>
        <mxCell id="wLOCGakWQ1x5J9LID62g-46" style="edgeStyle=orthogonalEdgeStyle;rounded=0;orthogonalLoop=1;jettySize=auto;html=1;exitX=0.5;exitY=1;exitDx=0;exitDy=0;entryX=0;entryY=0.5;entryDx=0;entryDy=0;" parent="1" source="wLOCGakWQ1x5J9LID62g-7" target="wLOCGakWQ1x5J9LID62g-40" edge="1">
          <mxGeometry relative="1" as="geometry"/>
        </mxCell>
        <mxCell id="wLOCGakWQ1x5J9LID62g-77" style="edgeStyle=orthogonalEdgeStyle;rounded=0;orthogonalLoop=1;jettySize=auto;html=1;exitX=0.5;exitY=1;exitDx=0;exitDy=0;entryX=0;entryY=0.5;entryDx=0;entryDy=0;" parent="1" source="wLOCGakWQ1x5J9LID62g-7" target="wLOCGakWQ1x5J9LID62g-48" edge="1">
          <mxGeometry relative="1" as="geometry"/>
        </mxCell>
        <mxCell id="wLOCGakWQ1x5J9LID62g-7" value="ROOT" style="ellipse;whiteSpace=wrap;html=1;fillColor=#f8cecc;strokeColor=#b85450;" parent="1" vertex="1">
          <mxGeometry x="10" y="10" width="70" height="30" as="geometry"/>
        </mxCell>
        <mxCell id="wLOCGakWQ1x5J9LID62g-19" style="edgeStyle=orthogonalEdgeStyle;rounded=0;orthogonalLoop=1;jettySize=auto;html=1;exitX=1;exitY=0.5;exitDx=0;exitDy=0;entryX=0;entryY=0.5;entryDx=0;entryDy=0;" parent="1" source="wLOCGakWQ1x5J9LID62g-8" target="wLOCGakWQ1x5J9LID62g-15" edge="1">
          <mxGeometry relative="1" as="geometry">
            <mxPoint x="295.33333333333326" y="70.33333333333337" as="sourcePoint"/>
          </mxGeometry>
        </mxCell>
        <mxCell id="wLOCGakWQ1x5J9LID62g-8" value="hair-types" style="rounded=1;whiteSpace=wrap;html=1;arcSize=43;fillColor=#d5e8d4;strokeColor=#82b366;" parent="1" vertex="1">
          <mxGeometry x="205" y="60" width="100" height="20" as="geometry"/>
        </mxCell>
        <mxCell id="wLOCGakWQ1x5J9LID62g-22" style="edgeStyle=orthogonalEdgeStyle;rounded=0;orthogonalLoop=1;jettySize=auto;html=1;exitX=1;exitY=0.5;exitDx=0;exitDy=0;entryX=0;entryY=0.5;entryDx=0;entryDy=0;" parent="1" source="wLOCGakWQ1x5J9LID62g-9" target="wLOCGakWQ1x5J9LID62g-16" edge="1">
          <mxGeometry relative="1" as="geometry">
            <mxPoint x="295.33333333333326" y="330" as="sourcePoint"/>
          </mxGeometry>
        </mxCell>
        <mxCell id="wLOCGakWQ1x5J9LID62g-9" value="raw-products" style="rounded=1;whiteSpace=wrap;html=1;arcSize=43;fillColor=#d5e8d4;strokeColor=#82b366;" parent="1" vertex="1">
          <mxGeometry x="205" y="255" width="100" height="20" as="geometry"/>
        </mxCell>
        <mxCell id="wLOCGakWQ1x5J9LID62g-21" style="edgeStyle=orthogonalEdgeStyle;rounded=0;orthogonalLoop=1;jettySize=auto;html=1;exitX=1;exitY=0.5;exitDx=0;exitDy=0;entryX=0;entryY=0.5;entryDx=0;entryDy=0;" parent="1" source="wLOCGakWQ1x5J9LID62g-11" target="wLOCGakWQ1x5J9LID62g-18" edge="1">
          <mxGeometry relative="1" as="geometry">
            <mxPoint x="295.33333333333326" y="100.33333333333337" as="sourcePoint"/>
          </mxGeometry>
        </mxCell>
        <mxCell id="wLOCGakWQ1x5J9LID62g-11" value="lash-tools" style="rounded=1;whiteSpace=wrap;html=1;arcSize=43;fillColor=#d5e8d4;strokeColor=#82b366;" parent="1" vertex="1">
          <mxGeometry x="205" y="87" width="100" height="20" as="geometry"/>
        </mxCell>
        <mxCell id="wLOCGakWQ1x5J9LID62g-23" style="edgeStyle=orthogonalEdgeStyle;rounded=0;orthogonalLoop=1;jettySize=auto;html=1;exitX=1;exitY=0.5;exitDx=0;exitDy=0;entryX=0;entryY=0.5;entryDx=0;entryDy=0;" parent="1" source="wLOCGakWQ1x5J9LID62g-12" target="wLOCGakWQ1x5J9LID62g-14" edge="1">
          <mxGeometry relative="1" as="geometry">
            <mxPoint x="295.33333333333326" y="395.33333333333337" as="sourcePoint"/>
          </mxGeometry>
        </mxCell>
        <mxCell id="wLOCGakWQ1x5J9LID62g-12" value="staffs" style="rounded=1;whiteSpace=wrap;html=1;arcSize=43;fillColor=#d5e8d4;strokeColor=#82b366;" parent="1" vertex="1">
          <mxGeometry x="205" y="347.5" width="100" height="20" as="geometry"/>
        </mxCell>
        <mxCell id="wLOCGakWQ1x5J9LID62g-14" value="&lt;blockquote style=&quot;margin: 0 0 0 40px ; border: none ; padding: 0px&quot;&gt;&lt;/blockquote&gt;&lt;ul&gt;&lt;li&gt;[Staff Name]-[ID] : map&lt;/li&gt;&lt;ul&gt;&lt;li&gt;credit : number&lt;/li&gt;&lt;li&gt;name : string&lt;/li&gt;&lt;li&gt;phone : string&lt;/li&gt;&lt;li&gt;address: string&lt;/li&gt;&lt;li&gt;lashTool: string&lt;/li&gt;&lt;li&gt;note: string&lt;/li&gt;&lt;/ul&gt;&lt;/ul&gt;&lt;blockquote style=&quot;margin: 0 0 0 40px ; border: none ; padding: 0px&quot;&gt;&lt;/blockquote&gt;" style="shape=process;whiteSpace=wrap;html=1;backgroundOutline=1;align=left;fillColor=#fff2cc;strokeColor=#d6b656;" parent="1" vertex="1">
          <mxGeometry x="345" y="305" width="376" height="105" as="geometry"/>
        </mxCell>
        <mxCell id="wLOCGakWQ1x5J9LID62g-15" value="&lt;ul&gt;&lt;li&gt;array-data: array&amp;lt;string&amp;gt;&lt;/li&gt;&lt;/ul&gt;" style="shape=process;whiteSpace=wrap;html=1;backgroundOutline=1;align=left;fillColor=#fff2cc;strokeColor=#d6b656;" parent="1" vertex="1">
          <mxGeometry x="345" y="60" width="375" height="20" as="geometry"/>
        </mxCell>
        <mxCell id="wLOCGakWQ1x5J9LID62g-16" value="&lt;ul&gt;&lt;li&gt;[lash-tool]-[hair-type] : map&lt;/li&gt;&lt;ul&gt;&lt;li&gt;pricePerItem: number&lt;/li&gt;&lt;li&gt;quantity: number&lt;/li&gt;&lt;/ul&gt;&lt;/ul&gt;" style="shape=process;whiteSpace=wrap;html=1;backgroundOutline=1;align=left;fillColor=#fff2cc;strokeColor=#d6b656;" parent="1" vertex="1">
          <mxGeometry x="345" y="240" width="376" height="50" as="geometry"/>
        </mxCell>
        <mxCell id="wLOCGakWQ1x5J9LID62g-18" value="&lt;ul&gt;&lt;li&gt;array-data: array&amp;lt;string&amp;gt;&lt;/li&gt;&lt;/ul&gt;" style="shape=process;whiteSpace=wrap;html=1;backgroundOutline=1;align=left;fillColor=#fff2cc;strokeColor=#d6b656;" parent="1" vertex="1">
          <mxGeometry x="345" y="87" width="375" height="20" as="geometry"/>
        </mxCell>
        <mxCell id="wLOCGakWQ1x5J9LID62g-45" style="edgeStyle=orthogonalEdgeStyle;rounded=0;orthogonalLoop=1;jettySize=auto;html=1;exitX=1;exitY=0.5;exitDx=0;exitDy=0;entryX=0;entryY=0.5;entryDx=0;entryDy=0;" parent="1" source="wLOCGakWQ1x5J9LID62g-40" target="wLOCGakWQ1x5J9LID62g-43" edge="1">
          <mxGeometry relative="1" as="geometry"/>
        </mxCell>
        <mxCell id="wLOCGakWQ1x5J9LID62g-40" value="raw-product-transactions" style="rounded=0;whiteSpace=wrap;html=1;fillColor=#dae8fc;strokeColor=#6c8ebf;" parent="1" vertex="1">
          <mxGeometry x="70" y="717" width="80" height="30" as="geometry"/>
        </mxCell>
        <mxCell id="wLOCGakWQ1x5J9LID62g-42" style="edgeStyle=orthogonalEdgeStyle;rounded=0;orthogonalLoop=1;jettySize=auto;html=1;exitX=1;exitY=0.5;exitDx=0;exitDy=0;entryX=0;entryY=0.5;entryDx=0;entryDy=0;" parent="1" source="wLOCGakWQ1x5J9LID62g-43" target="wLOCGakWQ1x5J9LID62g-44" edge="1">
          <mxGeometry relative="1" as="geometry"/>
        </mxCell>
        <mxCell id="wLOCGakWQ1x5J9LID62g-43" value="[Staff Name]-[ISO Time]" style="rounded=1;whiteSpace=wrap;html=1;arcSize=43;fillColor=#d5e8d4;strokeColor=#82b366;" parent="1" vertex="1">
          <mxGeometry x="205" y="719" width="100" height="26" as="geometry"/>
        </mxCell>
        <mxCell id="wLOCGakWQ1x5J9LID62g-44" value="&lt;blockquote style=&quot;margin: 0 0 0 40px ; border: none ; padding: 0px&quot;&gt;&lt;/blockquote&gt;&lt;ul&gt;&lt;li&gt;staffID: string&lt;/li&gt;&lt;li&gt;totalQuantity : number&lt;/li&gt;&lt;li&gt;totalAmount : number&lt;/li&gt;&lt;li&gt;transaction: map&lt;/li&gt;&lt;ul&gt;&lt;li&gt;type: string&lt;/li&gt;&lt;li&gt;amount: number&lt;/li&gt;&lt;li&gt;note: string&lt;/li&gt;&lt;/ul&gt;&lt;li&gt;transactionItems : map&lt;/li&gt;&lt;ul&gt;&lt;li&gt;[raw-product] : map&lt;/li&gt;&lt;ul&gt;&lt;li&gt;pricePerItem : number&lt;/li&gt;&lt;li&gt;quantity : number&lt;/li&gt;&lt;/ul&gt;&lt;/ul&gt;&lt;/ul&gt;&lt;blockquote style=&quot;margin: 0 0 0 40px ; border: none ; padding: 0px&quot;&gt;&lt;/blockquote&gt;" style="shape=process;whiteSpace=wrap;html=1;backgroundOutline=1;align=left;fillColor=#fff2cc;strokeColor=#d6b656;" parent="1" vertex="1">
          <mxGeometry x="345" y="650" width="376" height="164" as="geometry"/>
        </mxCell>
        <mxCell id="wLOCGakWQ1x5J9LID62g-50" style="edgeStyle=orthogonalEdgeStyle;rounded=0;orthogonalLoop=1;jettySize=auto;html=1;exitX=1;exitY=0.5;exitDx=0;exitDy=0;entryX=0;entryY=0.5;entryDx=0;entryDy=0;" parent="1" source="wLOCGakWQ1x5J9LID62g-48" target="wLOCGakWQ1x5J9LID62g-49" edge="1">
          <mxGeometry relative="1" as="geometry"/>
        </mxCell>
        <mxCell id="wLOCGakWQ1x5J9LID62g-48" value="product-transactions" style="rounded=0;whiteSpace=wrap;html=1;fillColor=#dae8fc;strokeColor=#6c8ebf;" parent="1" vertex="1">
          <mxGeometry x="80" y="890" width="80" height="30" as="geometry"/>
        </mxCell>
        <mxCell id="wLOCGakWQ1x5J9LID62g-76" style="edgeStyle=orthogonalEdgeStyle;rounded=0;orthogonalLoop=1;jettySize=auto;html=1;exitX=1;exitY=0.5;exitDx=0;exitDy=0;entryX=0;entryY=0.5;entryDx=0;entryDy=0;" parent="1" source="wLOCGakWQ1x5J9LID62g-49" target="wLOCGakWQ1x5J9LID62g-51" edge="1">
          <mxGeometry relative="1" as="geometry"/>
        </mxCell>
        <mxCell id="wLOCGakWQ1x5J9LID62g-49" value="[Customer Name]-[ISO Time]" style="rounded=1;whiteSpace=wrap;html=1;arcSize=43;fillColor=#d5e8d4;strokeColor=#82b366;" parent="1" vertex="1">
          <mxGeometry x="205" y="890.75" width="100" height="28.5" as="geometry"/>
        </mxCell>
        <mxCell id="wLOCGakWQ1x5J9LID62g-73" style="edgeStyle=orthogonalEdgeStyle;rounded=0;orthogonalLoop=1;jettySize=auto;html=1;" parent="1" target="wLOCGakWQ1x5J9LID62g-63" edge="1">
          <mxGeometry relative="1" as="geometry">
            <mxPoint x="770.3333333333335" y="978.3333333333333" as="targetPoint"/>
            <mxPoint x="720" y="905" as="sourcePoint"/>
          </mxGeometry>
        </mxCell>
        <mxCell id="wLOCGakWQ1x5J9LID62g-51" value="&lt;blockquote style=&quot;margin: 0 0 0 40px ; border: none ; padding: 0px&quot;&gt;&lt;/blockquote&gt;&lt;ul&gt;&lt;li&gt;customerName : string&lt;/li&gt;&lt;li&gt;customerPhone : string&lt;/li&gt;&lt;li&gt;deliveryDate : string&lt;/li&gt;&lt;li&gt;totalQuantity : number&lt;/li&gt;&lt;li&gt;totalAmount : number&lt;/li&gt;&lt;li&gt;transactionStatus : string&lt;/li&gt;&lt;li&gt;transactionItems : map&lt;/li&gt;&lt;ul&gt;&lt;li&gt;[product] : map&lt;/li&gt;&lt;ul&gt;&lt;li&gt;pricePerItem : number&lt;/li&gt;&lt;li&gt;quantity : number&lt;/li&gt;&lt;/ul&gt;&lt;/ul&gt;&lt;/ul&gt;&lt;blockquote style=&quot;margin: 0 0 0 40px ; border: none ; padding: 0px&quot;&gt;&lt;/blockquote&gt;" style="shape=process;whiteSpace=wrap;html=1;backgroundOutline=1;align=left;fillColor=#fff2cc;strokeColor=#d6b656;" parent="1" vertex="1">
          <mxGeometry x="344" y="830" width="376" height="150" as="geometry"/>
        </mxCell>
        <mxCell id="wLOCGakWQ1x5J9LID62g-52" style="edgeStyle=orthogonalEdgeStyle;rounded=0;orthogonalLoop=1;jettySize=auto;html=1;exitX=1;exitY=0.5;exitDx=0;exitDy=0;entryX=0;entryY=0.5;entryDx=0;entryDy=0;" parent="1" source="wLOCGakWQ1x5J9LID62g-53" target="wLOCGakWQ1x5J9LID62g-54" edge="1">
          <mxGeometry relative="1" as="geometry">
            <mxPoint x="295.33333333333326" y="132.83333333333337" as="sourcePoint"/>
          </mxGeometry>
        </mxCell>
        <mxCell id="wLOCGakWQ1x5J9LID62g-53" value="curl-types" style="rounded=1;whiteSpace=wrap;html=1;arcSize=43;fillColor=#d5e8d4;strokeColor=#82b366;" parent="1" vertex="1">
          <mxGeometry x="205" y="114" width="100" height="20" as="geometry"/>
        </mxCell>
        <mxCell id="wLOCGakWQ1x5J9LID62g-54" value="&lt;ul&gt;&lt;li&gt;array-data: array&amp;lt;string&amp;gt;&lt;/li&gt;&lt;/ul&gt;" style="shape=process;whiteSpace=wrap;html=1;backgroundOutline=1;align=left;fillColor=#fff2cc;strokeColor=#d6b656;" parent="1" vertex="1">
          <mxGeometry x="345" y="114" width="375" height="20" as="geometry"/>
        </mxCell>
        <mxCell id="wLOCGakWQ1x5J9LID62g-55" style="edgeStyle=orthogonalEdgeStyle;rounded=0;orthogonalLoop=1;jettySize=auto;html=1;exitX=1;exitY=0.5;exitDx=0;exitDy=0;entryX=0;entryY=0.5;entryDx=0;entryDy=0;" parent="1" source="wLOCGakWQ1x5J9LID62g-56" target="wLOCGakWQ1x5J9LID62g-57" edge="1">
          <mxGeometry relative="1" as="geometry">
            <mxPoint x="304.83333333333326" y="200" as="sourcePoint"/>
          </mxGeometry>
        </mxCell>
        <mxCell id="wLOCGakWQ1x5J9LID62g-56" value="products" style="rounded=1;whiteSpace=wrap;html=1;arcSize=43;fillColor=#d5e8d4;strokeColor=#82b366;" parent="1" vertex="1">
          <mxGeometry x="205" y="190" width="100" height="20" as="geometry"/>
        </mxCell>
        <mxCell id="wLOCGakWQ1x5J9LID62g-57" value="&lt;ul&gt;&lt;li&gt;[raw-product]-[curl-type]-[product-type] : map&lt;/li&gt;&lt;ul&gt;&lt;li&gt;pricePerItem: number&lt;/li&gt;&lt;li&gt;quantity: number&lt;/li&gt;&lt;/ul&gt;&lt;/ul&gt;" style="shape=process;whiteSpace=wrap;html=1;backgroundOutline=1;align=left;fillColor=#fff2cc;strokeColor=#d6b656;" parent="1" vertex="1">
          <mxGeometry x="345" y="175" width="376" height="50" as="geometry"/>
        </mxCell>
        <mxCell id="wLOCGakWQ1x5J9LID62g-58" style="edgeStyle=orthogonalEdgeStyle;rounded=0;orthogonalLoop=1;jettySize=auto;html=1;exitX=1;exitY=0.5;exitDx=0;exitDy=0;entryX=0;entryY=0.5;entryDx=0;entryDy=0;" parent="1" source="wLOCGakWQ1x5J9LID62g-59" target="wLOCGakWQ1x5J9LID62g-60" edge="1">
          <mxGeometry relative="1" as="geometry">
            <mxPoint x="297.83333333333303" y="165.33333333333337" as="sourcePoint"/>
          </mxGeometry>
        </mxCell>
        <mxCell id="wLOCGakWQ1x5J9LID62g-59" value="product-types" style="rounded=1;whiteSpace=wrap;html=1;arcSize=43;fillColor=#d5e8d4;strokeColor=#82b366;" parent="1" vertex="1">
          <mxGeometry x="205" y="141" width="100" height="20" as="geometry"/>
        </mxCell>
        <mxCell id="wLOCGakWQ1x5J9LID62g-60" value="&lt;ul&gt;&lt;li&gt;array-data: array&amp;lt;string&amp;gt;&lt;/li&gt;&lt;/ul&gt;" style="shape=process;whiteSpace=wrap;html=1;backgroundOutline=1;align=left;fillColor=#fff2cc;strokeColor=#d6b656;" parent="1" vertex="1">
          <mxGeometry x="345" y="141" width="375" height="20" as="geometry"/>
        </mxCell>
        <mxCell id="wLOCGakWQ1x5J9LID62g-74" style="edgeStyle=orthogonalEdgeStyle;rounded=0;orthogonalLoop=1;jettySize=auto;html=1;exitX=1;exitY=0.5;exitDx=0;exitDy=0;entryX=0;entryY=0.5;entryDx=0;entryDy=0;" parent="1" source="wLOCGakWQ1x5J9LID62g-63" target="wLOCGakWQ1x5J9LID62g-64" edge="1">
          <mxGeometry relative="1" as="geometry"/>
        </mxCell>
        <mxCell id="wLOCGakWQ1x5J9LID62g-63" value="sub-product-transactions" style="rounded=0;whiteSpace=wrap;html=1;fillColor=#dae8fc;strokeColor=#6c8ebf;" parent="1" vertex="1">
          <mxGeometry x="750" y="890" width="80" height="30" as="geometry"/>
        </mxCell>
        <mxCell id="wLOCGakWQ1x5J9LID62g-75" style="edgeStyle=orthogonalEdgeStyle;rounded=0;orthogonalLoop=1;jettySize=auto;html=1;exitX=1;exitY=0.5;exitDx=0;exitDy=0;entryX=0;entryY=0.5;entryDx=0;entryDy=0;" parent="1" source="wLOCGakWQ1x5J9LID62g-64" target="wLOCGakWQ1x5J9LID62g-68" edge="1">
          <mxGeometry relative="1" as="geometry"/>
        </mxCell>
        <mxCell id="wLOCGakWQ1x5J9LID62g-64" value="[ISO Time]" style="rounded=1;whiteSpace=wrap;html=1;arcSize=43;fillColor=#d5e8d4;strokeColor=#82b366;" parent="1" vertex="1">
          <mxGeometry x="850" y="895" width="100" height="20" as="geometry"/>
        </mxCell>
        <mxCell id="wLOCGakWQ1x5J9LID62g-79" style="edgeStyle=orthogonalEdgeStyle;rounded=0;orthogonalLoop=1;jettySize=auto;html=1;exitX=1;exitY=0.5;exitDx=0;exitDy=0;entryX=0;entryY=0.5;entryDx=0;entryDy=0;" parent="1" source="wLOCGakWQ1x5J9LID62g-66" target="wLOCGakWQ1x5J9LID62g-67" edge="1">
          <mxGeometry relative="1" as="geometry"/>
        </mxCell>
        <mxCell id="wLOCGakWQ1x5J9LID62g-66" value="product-transactions" style="rounded=1;whiteSpace=wrap;html=1;arcSize=43;fillColor=#d5e8d4;strokeColor=#82b366;" parent="1" vertex="1">
          <mxGeometry x="205" y="475" width="100" height="30" as="geometry"/>
        </mxCell>
        <mxCell id="wLOCGakWQ1x5J9LID62g-67" value="&lt;blockquote style=&quot;margin: 0 0 0 40px ; border: none ; padding: 0px&quot;&gt;&lt;/blockquote&gt;&lt;ul&gt;&lt;li&gt;[product-transaction ISO Time] : map&lt;/li&gt;&lt;ul&gt;&lt;li&gt;customerName : string&lt;/li&gt;&lt;li&gt;customerPhone : string&lt;/li&gt;&lt;li&gt;deliveryDate : string&lt;/li&gt;&lt;li&gt;remainingAmount : number&lt;/li&gt;&lt;li&gt;remainingItems: map&lt;/li&gt;&lt;ul&gt;&lt;li&gt;[product] : map&lt;/li&gt;&lt;ul&gt;&lt;li&gt;quantity : number&lt;/li&gt;&lt;/ul&gt;&lt;/ul&gt;&lt;/ul&gt;&lt;/ul&gt;&lt;blockquote style=&quot;margin: 0 0 0 40px ; border: none ; padding: 0px&quot;&gt;&lt;/blockquote&gt;" style="shape=process;whiteSpace=wrap;html=1;backgroundOutline=1;align=left;fillColor=#fff2cc;strokeColor=#d6b656;" parent="1" vertex="1">
          <mxGeometry x="345" y="430" width="376" height="120" as="geometry"/>
        </mxCell>
        <mxCell id="wLOCGakWQ1x5J9LID62g-68" value="&lt;blockquote style=&quot;margin: 0 0 0 40px ; border: none ; padding: 0px&quot;&gt;&lt;/blockquote&gt;&lt;ul&gt;&lt;li&gt;subTransactionStatus : string&lt;/li&gt;&lt;li&gt;&lt;span&gt;newDeliveryDate : string&lt;/span&gt;&lt;br&gt;&lt;/li&gt;&lt;li&gt;&lt;span&gt;collectedAmount : number&lt;/span&gt;&lt;br&gt;&lt;/li&gt;&lt;li&gt;&lt;span&gt;deliveredItems: map&lt;/span&gt;&lt;br&gt;&lt;/li&gt;&lt;ul&gt;&lt;li&gt;&lt;span&gt;[product] : map&lt;/span&gt;&lt;br&gt;&lt;/li&gt;&lt;ul&gt;&lt;li&gt;&lt;span&gt;quantity : number&lt;/span&gt;&lt;br&gt;&lt;/li&gt;&lt;/ul&gt;&lt;/ul&gt;&lt;/ul&gt;&lt;blockquote style=&quot;margin: 0 0 0 40px ; border: none ; padding: 0px&quot;&gt;&lt;/blockquote&gt;" style="shape=process;whiteSpace=wrap;html=1;backgroundOutline=1;align=left;fillColor=#fff2cc;strokeColor=#d6b656;" parent="1" vertex="1">
          <mxGeometry x="970" y="845" width="325" height="120" as="geometry"/>
        </mxCell>
        <mxCell id="wLOCGakWQ1x5J9LID62g-81" style="edgeStyle=orthogonalEdgeStyle;rounded=0;orthogonalLoop=1;jettySize=auto;html=1;exitX=1;exitY=0.5;exitDx=0;exitDy=0;entryX=0;entryY=0.5;entryDx=0;entryDy=0;" parent="1" source="wLOCGakWQ1x5J9LID62g-69" target="wLOCGakWQ1x5J9LID62g-70" edge="1">
          <mxGeometry relative="1" as="geometry"/>
        </mxCell>
        <mxCell id="wLOCGakWQ1x5J9LID62g-69" value="transactions" style="rounded=1;whiteSpace=wrap;html=1;arcSize=43;fillColor=#d5e8d4;strokeColor=#82b366;" parent="1" vertex="1">
          <mxGeometry x="205" y="585" width="100" height="30" as="geometry"/>
        </mxCell>
        <mxCell id="wLOCGakWQ1x5J9LID62g-70" value="&lt;blockquote style=&quot;margin: 0 0 0 40px ; border: none ; padding: 0px&quot;&gt;&lt;/blockquote&gt;&lt;ul&gt;&lt;li&gt;[expense/income]-[ISO Time] : map&lt;/li&gt;&lt;ul&gt;&lt;li&gt;type : string&lt;/li&gt;&lt;li&gt;amount : number&lt;/li&gt;&lt;li&gt;note : string&lt;/li&gt;&lt;/ul&gt;&lt;/ul&gt;&lt;blockquote style=&quot;margin: 0 0 0 40px ; border: none ; padding: 0px&quot;&gt;&lt;/blockquote&gt;" style="shape=process;whiteSpace=wrap;html=1;backgroundOutline=1;align=left;fillColor=#fff2cc;strokeColor=#d6b656;" parent="1" vertex="1">
          <mxGeometry x="345" y="565" width="376" height="70" as="geometry"/>
        </mxCell>
      </root>
    </mxGraphModel>
  </diagram>
</mxfile>
